# xmcd
#
# Track frame offsets:
# 150
# 13315
# 24802
# 33687
# 51761
# 64604
# 75792
# 98342
# 106586
# 129182
# 140737
#
# Disc length: 2108 seconds
#
# Revision: 0
# Processed by: cddbd v1.4PL0 Copyright (c) Steve Scherf et al.
# Submitted via: Audion 3.0.2 (http://www.panic.com/audion/)
#
DISCID=78083a0b
DTITLE=Ron Frame and Sarah Kovar - The Curmudgeon and The Kid
DYEAR=1900
DGENRE=
TTITLE0=A Horse and Saddle
TTITLE1=Pinto Pal
TTITLE2=The Windmill
TTITLE3=The Border
TTITLE4=That Palomino Pal o' Mine
TTITLE5=Tyin' Knots in the Devil's Tail
TTITLE6=The Strawberry Roan
TTITLE7=The Bunkhouse Orchestra
TTITLE8=The Cremation of Sam McGee
TTITLE9=Paint the Town
TTITLE10=Cowboy's Dream
EXTD=
EXTT0=
EXTT1=
EXTT2=
EXTT3=
EXTT4=
EXTT5=
EXTT6=
EXTT7=
EXTT8=
EXTT9=
EXTT10=
PLAYORDER=
